<svg xmlns="http://www.w3.org/2000/svg" xmlns:xlink="http://www.w3.org/1999/xlink" version="1.1" x="0px" y="0px" viewBox="0 0 100 125" enable-background="new 0 0 100 100" xml:space="preserve"><path d="M72.974,6.621c-11.681,0-21.927,11.001-21.927,23.542c0,6.64,4.02,13.923,7.755,17.881  c4.337,4.595,8.336,10.315,9.36,11.812v32.022c0,0.829,0.672,1.5,1.5,1.5h6.452c0.828,0,1.5-0.671,1.5-1.5V59.858  c0.984-1.43,4.75-6.761,9.53-11.814C92.001,42.91,94.9,36.229,94.9,30.172C94.9,17.847,84.449,6.621,72.974,6.621z M74.614,60.146  v3.756h-3.452v-3.756H74.614z M71.162,90.379V65.401h3.452v24.978H71.162z M84.965,45.982c-5.729,6.057-9.923,12.317-10.099,12.581  c-0.017,0.025-0.023,0.056-0.039,0.082h-3.879c-0.015-0.026-0.022-0.057-0.039-0.082c-0.191-0.287-4.739-7.082-9.927-12.578  c-3.447-3.653-6.937-10.26-6.937-15.822c0-10.751,9.021-20.542,18.927-20.542S91.9,19.417,91.9,30.172  C91.9,36.423,88.317,42.438,84.965,45.982z M41.357,28.106c-0.494-7.096-6.098-12.655-12.756-12.655  c-6.594,0-12.196,5.553-12.754,12.626c-0.18,1.602-6.504,30.217-10.712,49.061c-0.12,0.537,0.063,1.096,0.479,1.458  c2.564,2.235,4.439,3.369,5.573,3.369c1.382,0,3.822-1.478,5.572-2.674c1.783,1.195,4.276,2.674,5.678,2.674  c1.529,0,4.438-1.616,6.222-2.703c1.615,1.097,4.213,2.69,5.703,2.703c0.004,0,0.02,0,0.023,0c1.551,0,4.286-1.597,5.979-2.693  c1.803,1.197,4.341,2.693,5.76,2.693c1.422,0,3.849-1.829,5.634-3.362c0.422-0.362,0.608-0.928,0.485-1.47  C47.966,58.318,41.537,29.729,41.357,28.106z M15.461,44.378h4.481l-0.646,5.508h-5.044C14.667,48.006,15.072,46.159,15.461,44.378z   M15.789,42.878c0.519-2.379,1-4.599,1.421-6.559h3.677l-0.769,6.559H15.789z M21.453,44.378h6.676l-0.028,5.508h-7.293  L21.453,44.378z M21.629,42.878l0.768-6.559h5.774l-0.034,6.559H21.629z M17.531,34.819c0.59-2.766,1.021-4.847,1.205-5.858h19.732  c0.187,1.018,0.623,3.099,1.22,5.858H17.531z M34.985,42.878h-5.349l0.034-6.559h4.413L34.985,42.878z M29.629,44.378h5.563  l0.757,5.508h-6.348L29.629,44.378z M35.598,36.319h4.416c0.427,1.96,0.916,4.18,1.444,6.559h-4.958L35.598,36.319z M41.704,44.378  c0.029,0,0.054-0.013,0.082-0.017c0.397,1.786,0.81,3.638,1.232,5.524h-5.556l-0.757-5.508H41.704z M28.602,18.452  c5.348,0,8.977,4.444,9.667,9.009H18.943C19.675,22.894,23.311,18.452,28.602,18.452z M11.242,78.956  c-0.492-0.172-1.751-1.044-2.98-2.051c1.018-4.563,3.412-15.306,5.666-25.539c0.033,0.004,0.062,0.019,0.096,0.019h5.098  L16.23,76.069C16.106,76.115,11.885,78.819,11.242,78.956z M22.466,78.966c-0.6-0.064-2.803-1.299-4.753-2.66l2.919-24.921h7.461  l-0.13,24.787C27.942,76.184,23.089,78.931,22.466,78.966z M34.392,78.965c-0.637-0.067-4.891-2.756-4.929-2.779l0.13-24.8h6.562  l3.411,24.823c-0.011,0.007-0.024,0.009-0.035,0.017C37.448,77.646,35.058,78.919,34.392,78.965z M46.079,78.955  c-0.706-0.141-2.914-1.377-4.848-2.721c-0.05-0.034-0.106-0.05-0.159-0.078l-3.405-24.771h5.686  c2.29,10.223,4.723,20.949,5.76,25.515C47.861,77.913,46.58,78.786,46.079,78.955z M72.974,12.012  c-9.258,0-16.79,8.182-16.79,18.239s7.532,18.239,16.79,18.239c7.031,0,13.235-4.906,15.731-11.862  c0.685-1.985,1.059-4.135,1.059-6.376C89.764,20.193,82.231,12.012,72.974,12.012z M60.05,39.187  c-0.337-0.583-0.643-1.188-0.913-1.816h0.913V39.187z M60.05,35.871H58.57c-0.46-1.409-0.752-2.904-0.851-4.457h2.33V35.871z   M60.05,29.914h-2.363c0.03-1.673,0.286-3.288,0.735-4.807h1.628V29.914z M60.05,23.607h-1.11c0.316-0.798,0.688-1.564,1.11-2.293  V23.607z M66.007,45.148c-0.913-0.514-1.772-1.125-2.568-1.821h2.568V45.148z M66.007,41.827h-4.101  c-0.028,0-0.228-0.304-0.356-0.462c0-0.005,0-0.009,0-0.014v-3.98h4.457V41.827z M66.007,35.871H61.55v-4.457h4.457V35.871z   M66.007,29.914H61.55v-4.807h4.457V29.914z M66.007,23.607H61.55v-4.331c0-0.043,0.082-0.126,0.126-0.126h4.331V23.607z   M66.007,17.65h-3.088c0.936-0.896,1.972-1.67,3.088-2.298V17.65z M72.313,46.974c-1.687-0.079-3.304-0.458-4.807-1.09v-2.556h4.807  V46.974z M72.313,41.827h-4.807v-4.457h4.807V41.827z M72.313,35.871h-4.807v-4.457h4.807V35.871z M72.313,29.914h-4.807v-4.807  h4.807V29.914z M72.313,23.607h-4.807V19.15h4.807V23.607z M72.313,17.65h-4.807v-3.033c1.503-0.632,3.12-1.012,4.807-1.09V17.65z   M79.77,15.258c1.181,0.644,2.275,1.451,3.259,2.393H79.77V15.258z M78.27,45.954c-1.4,0.568-2.898,0.917-4.456,1.01v-3.637h4.456  V45.954z M78.27,41.827h-4.456v-4.457h4.456V41.827z M78.27,35.871h-4.456v-4.457h4.456V35.871z M78.27,29.914h-4.456v-4.807h4.456  V29.914z M78.27,23.607h-4.456V19.15h4.456V23.607z M78.27,17.65h-4.456v-4.114c1.558,0.093,3.056,0.442,4.456,1.01V17.65z   M79.77,45.243v-1.916h2.739C81.664,44.066,80.746,44.71,79.77,45.243z M84.577,41.14c-0.185,0.235-0.374,0.464-0.569,0.688H79.77  v-4.457h4.808V41.14z M84.577,35.871H79.77v-4.457h4.808V35.871z M84.577,29.914H79.77v-4.807h4.808V29.914z M84.577,23.607H79.77  V19.15h4.559c0.095,0,0.181,0.123,0.249,0.211V23.607z M86.077,21.632c0.349,0.633,0.659,1.292,0.931,1.975h-0.931V21.632z   M86.077,38.869v-1.499h0.733C86.589,37.885,86.344,38.385,86.077,38.869z M87.377,35.871h-1.3v-4.457h2.15  C88.129,32.967,87.837,34.462,87.377,35.871z M86.077,29.914v-4.807h1.448c0.449,1.52,0.705,3.134,0.735,4.807H86.077z"/><text x="0" y="115" fill="#000000" font-size="5px" font-weight="bold" font-family="'Helvetica Neue', Helvetica, Arial-Unicode, Arial, Sans-serif">Created by H Alberto Gongora</text><text x="0" y="120" fill="#000000" font-size="5px" font-weight="bold" font-family="'Helvetica Neue', Helvetica, Arial-Unicode, Arial, Sans-serif">from the Noun Project</text></svg>