<?xml version="1.0" encoding="utf-8"?>
<!-- Svg Vector Icons : http://www.onlinewebfonts.com/icon -->
<!DOCTYPE svg PUBLIC "-//W3C//DTD SVG 1.1//EN" "http://www.w3.org/Graphics/SVG/1.1/DTD/svg11.dtd">
<svg version="1.1" xmlns="http://www.w3.org/2000/svg" xmlns:xlink="http://www.w3.org/1999/xlink" x="0px" y="0px" viewBox="0 0 1000 1000" enable-background="new 0 0 1000 1000" xml:space="preserve">
<metadata> Svg Vector Icons : http://www.onlinewebfonts.com/icon </metadata>
<g><path d="M446.8,289.2c0,36.7,29.7,66.4,66.4,66.4c36.7,0,66.4-29.7,66.4-66.4c0-36.7-29.7-66.4-66.4-66.4C476.5,222.8,446.8,252.5,446.8,289.2z"/><path d="M457.9,665.8c0,0,34.5,0.2,52.2-30.8c0,0,98.7,233.2,263.8,280.5l34.3,12.1c0,0,25,12.6,21.3,38.9c0,0-0.9,35.2-60.3,19.5c0,0-117.8-38-191-128c0,0-81-96.5-102.9-155.8L457.9,665.8z"/><path d="M770.1,363.7c0,0-4.6-64-31.5-62.1c0,0-3.4-0.3-8,0.2l-29.1-88.6c10.8-6.3,19-17.4,23.7-32.1c5.6-17.8,5.3-38.9-0.9-59.6c-11.3-37.7-39-64.1-67.2-64.1c-4.2,0-8.3,0.6-12.3,1.8c-15.4,4.6-27.1,17.5-33,36.2c-5.6,17.8-5.3,38.9,0.9,59.6c11.3,37.7,39,64.1,67.2,64.1c3,0,6-0.3,8.9-0.9l29,86.5c-7.2,2.9-13.8,8.2-15.4,18.3c0,0,2.4,19.8,8.5,41.7c0,0,22.3,67.7-67.7,56.6c0,0-205.9-24.1-312.5-91.8c0,0-36.2-21.3-70.5-52.9l-6.5-5.6c0,0-26-26-50.1-13.9c0,0-34.3,15.8-8.3,47.3c0,0,98.6,102.7,238.5,135.4c-2.4,44.6-9,128.6-25.2,142.8c-22.3,19.5-106.8,42.9-135.4,73.3c0,0-61.2,42.7-83.5,167.8L176,925.2c0,0-11.4,45,26.6,47.8c0,0,38,5.6,39.9-47.3c0,0,2.8-199.4,123.3-244.8c0,0,101.1-32.5,128-73.3c0,0,26-46.4,31.5-91.8l9.2-53c34.3,9.2,155.2,37.9,201.3-2.6C735.8,460.2,778.5,431.4,770.1,363.7z M625.8,151c-5.4-18-5.8-36.3-1-51.4c4.5-14.2,12.9-23.8,23.8-27.1c2.7-0.8,5.5-1.2,8.3-1.2c21.8,0,44.5,22.8,53.9,54.2c5.4,18,5.8,36.3,1,51.4c-4.5,14.2-12.9,23.8-23.8,27.1c-2.7,0.8-5.5,1.2-8.3,1.2C657.9,205.2,635.3,182.4,625.8,151z"/><path d="M257.4,55.5c0,0,29.6-1.9,27.5,19.3c0,0,0.1,17.8-18.2,20.4c0,0-12.1-1-14.7-3l-81.8,13.1L186.7,10L257.4,55.5z"/></g>
</svg>